<svg xmlns="http://www.w3.org/2000/svg" width="272" height="188.501" viewBox="0 0 272 188.501"><defs><style>.a,.i{fill:none;}.a{stroke:#878ca4;stroke-width:2px;stroke-dasharray:5;}.b,.d{fill:#5e6166;}.b{font-size:12px;}.b,.f{font-family:Roboto-Bold, Roboto;font-weight:700;}.c,.g{fill:#878ca4;}.c,.d,.e{font-size:14px;font-family:Roboto-Regular, Roboto;}.e{fill:#58c25d;}.f{fill:#404040;font-size:15px;}.h{stroke:none;}</style></defs><g transform="translate(7516 -2075.499)"><g transform="translate(0 -19)"><g transform="translate(-7516 2133)"><g class="a" transform="translate(0 0.5)"><rect class="h" width="264" height="40" rx="4"/><rect class="i" x="1" y="1" width="262" height="38" rx="3"/></g><text class="b" transform="translate(10 12.5)"><tspan x="93.43" y="13">WELCOME</tspan></text></g><text class="c" transform="translate(-7516 2183)"><tspan x="0" y="15">Games allowed:</tspan></text><text class="d" transform="translate(-7408 2183)"><tspan x="0" y="15">Slots, Keno, Scratch </tspan><tspan x="0" y="35">Cards, Bingo</tspan></text><text class="c" transform="translate(-7516 2233)"><tspan x="0" y="15">Max cash out:</tspan></text><text class="d" transform="translate(-7408 2233)"><tspan x="0" y="15">$100</tspan></text><text class="c" transform="translate(-7516 2263)"><tspan x="0" y="15">Min. deposit:</tspan></text><text class="e" transform="translate(-7408 2263)"><tspan x="0" y="15">FREE</tspan></text></g><text class="f" transform="translate(-7516 2078.5)"><tspan x="0" y="16">20 Free Spins at 21 Dukes Casino </tspan></text><path class="g" d="M-665.627-10.352l-4.461-4.461-4.461,4.461a.9.9,0,0,1-1.275,0,.9.9,0,0,1,0-1.275l4.461-4.461-4.461-4.461a.9.9,0,0,1,0-1.275.9.9,0,0,1,1.275,0l4.461,4.461,4.461-4.461a.9.9,0,0,1,1.274,0,.9.9,0,0,1,0,1.274l-4.461,4.461,4.461,4.461a.9.9,0,0,1,0,1.275.9.9,0,0,1-.638.264A.9.9,0,0,1-665.627-10.352Z" transform="translate(-6579.912 2097.587)"/></g></svg>